<?xml version="1.0" encoding="UTF-8"?>
<svg id="Ebene_1" data-name="Ebene 1" xmlns="http://www.w3.org/2000/svg" viewBox="0 0 2268.51 932.63">
  <defs>
    <style>
      .cls-1, .cls-2 {
        stroke-linecap: round;
        stroke-linejoin: round;
      }

      .cls-1, .cls-2, .cls-3 {
        fill: none;
        stroke: #000;
      }

      .cls-1, .cls-3 {
        stroke-width: .51px;
      }

      .cls-4 {
        font-family: CenturyGothic, 'Century Gothic';
        font-size: 35.99px;
      }

      .cls-2 {
        stroke-width: .71px;
      }

      .cls-3 {
        stroke-dasharray: 43.2 3.6 3.6 3.6;
        stroke-miterlimit: 10;
      }
    </style>
  </defs>
  <path class="cls-2" d="M849.65,456.65v-2.7M849.65,439.75h-5.6M849.65,439.75v-9.1M849.65,453.95h-5.6M1161.55,453.95v2.7M1167.15,439.75h-5.6M1167.15,453.95h-5.6M1161.55,430.65v9.1M1004.55,908.75l.3.2.2.2h.3l.2.1.3-.1h.3l.2-.2.3-.2M1217.75,697.65l.1-.1.1-.1.1-.2v-.1l.1-.1v-.4M917.15,589.45l-5.6-5.7M998.55,583.75h-87M998.55,583.75v5.7M917.15,589.45h81.4M860.45,536.75l44.2,44.2M904.65,580.95h-8M856.45,540.75l40.2,40.2M844.05,510.65l.2,4.2.6,4.1,1,4,1.4,4,1.8,3.7,2.1,3.6,2.5,3.4,2.8,3.1M844.05,490.75v19.9M844.05,490.75h5.6M849.65,490.75v19.9M849.65,510.65l.2,3.6.6,3.6.8,3.5,1.2,3.4,1.6,3.3,1.9,3.1,2.1,2.9,2.4,2.7M895.05,583.75h-93.5M895.05,583.75l6,5.7M801.55,589.45h99.5M801.55,589.45v-5.7M1114.55,580.95l40.2-40.2M1106.55,580.95h8M1106.55,580.95l44.2-44.2M1150.75,536.75l2.4-2.7,2.1-2.9,1.9-3.1,1.5-3.3,1.3-3.4.8-3.5.6-3.6.2-3.6M1161.55,510.65v-19.9M1161.55,490.75h5.6M1167.15,510.65v-19.9M1154.75,540.75l2.8-3.1,2.5-3.4,2.1-3.6,1.8-3.7,1.4-4,1-4,.6-4.1.2-4.2M1116.05,583.75l-5.9,5.7M1209.65,583.75h-93.6M1209.65,583.75v5.7M1110.15,589.45h99.5M1094.05,589.45l5.6-5.7M1012.65,589.45h81.4M1012.65,589.45v-5.7M1099.65,583.75h-87M1218.15,696.65V212.95M1218.15,212.95v-.4l-.1-.1v-.1l-.1-.2-.1-.1-.1-.1M1217.75,211.95L1006.65.85M1006.65.85l-.3-.2-.2-.2h-.3l-.3-.1-.2.1h-.3l-.2.2-.3.2M793.45,211.95L1004.55.85M793.45,211.95l-.1.1-.1.1-.1.2v.1l-.1.1v.3l-.1.1M792.95,696.65V212.95M792.95,696.65l.1.1v.3l.1.1v.1l.1.2.1.1.1.1M793.45,697.65l211.1,211.1M1217.75,697.65l-211.1,211.1M1009.85,858.75l-.3,1.6-.9,1.4-1.4.9-1.7.3-1.6-.3-1.4-.9-.9-1.4-.3-1.6.3-1.6.9-1.4,1.4-.9,1.6-.4,1.7.4,1.4.9.9,1.4.3,1.6M1058.55,793.25l25.4-25.4M1083.95,767.85l4,4M1062.55,797.25l25.4-25.4M1030.55,810.55l4.4-.3,4.4-.6,4.3-1.1,4.2-1.5,4-1.9,3.8-2.3,3.6-2.6,3.3-3M1012.65,810.55h17.9M1012.65,810.55v-5.7M1012.65,804.85h17.9M1030.55,804.85l3.8-.2,3.9-.6,3.8-.9,3.6-1.3,3.6-1.7,3.3-2,3.1-2.3,2.9-2.6M923.25,771.85l25.4,25.4M923.25,771.85l4-4M927.25,767.85l25.4,25.4M952.65,793.25l2.9,2.6,3.1,2.3,3.3,2,3.6,1.7,3.6,1.3,3.8.9,3.9.6,3.8.2M980.65,804.85h17.9M998.55,804.85v5.7M980.65,810.55h17.9M948.65,797.25l3.3,3,3.5,2.6,3.9,2.3,4,1.9,4.2,1.5,4.3,1.1,4.4.6,4.4.3M1031.65,655.75l12.5-12.5M1044.15,643.25h8M1035.65,659.75l16.5-16.5M1012.65,671.65l3.2-.7,3.2-.9,3.1-1.2,2.9-1.4,2.9-1.6,2.7-1.8,2.6-2,2.4-2.3M1012.65,671.65v-5.8M1012.65,665.85l2.7-.6,2.6-.8,2.5-1,2.5-1.2,2.3-1.4,2.3-1.5,2.1-1.7,2-1.9M1081.35,640.45h-22.3M1059.05,640.45l5.6-5.7M1081.35,634.75h-16.7M1123.45,736.35l5.1-5.8,4.3-6.5,3.5-7,2.5-7.4,1.5-7.6.5-7.8-.5-7.7-1.5-7.7-2.5-7.3-3.5-7-4.3-6.5-5.1-5.9-5.9-5.1-6.5-4.3-6.9-3.5-7.4-2.5-7.7-1.5-7.7-.5M1098.05,761.75l25.4-25.4M1098.05,761.75l-4.1-4M1093.95,757.75l25.5-25.4M1119.45,732.35l4.9-5.6,4-6.3,3.2-6.7,2.2-7.1,1.2-7.4.2-7.4-.9-7.5-1.9-7.2-2.8-6.9-3.8-6.4-4.6-5.8-5.4-5.2-6.1-4.4-6.6-3.4-7-2.6-7.3-1.5-7.4-.5M1063.55,631.95l26.6-26.7M1063.55,631.95h-8.1M1055.45,631.95l30.7-30.7M1086.15,601.25l4,4M1048.65,634.75h-36M1048.65,634.75l-5.7,5.7M1042.95,640.45h-30.3M1012.65,640.45v-5.7M998.55,640.45h-30.3M968.25,640.45l-5.7-5.7M998.55,634.75h-36M998.55,634.75v5.7M925.05,601.25l30.6,30.7M955.65,631.95h-8M921.05,605.25l26.6,26.7M925.05,601.25l-4,4M946.55,634.75h-16.7M946.55,634.75l5.6,5.7M952.15,640.45h-22.3M929.85,640.45l-7.4.5-7.3,1.5-7,2.6-6.6,3.4-6.1,4.4-5.4,5.2-4.6,5.8-3.8,6.4-2.8,6.9-1.9,7.2-.9,7.5.2,7.4,1.2,7.4,2.2,7.1,3.2,6.7,4,6.3,4.9,5.6M891.75,732.35l25.4,25.4M917.15,757.75l-4,4M887.75,736.35l25.4,25.4M929.85,634.75l-7.8.5-7.6,1.5-7.4,2.5-6.9,3.5-6.5,4.3-5.9,5.1-5.1,5.9-4.3,6.5-3.5,7-2.5,7.3-1.5,7.7-.5,7.7.5,7.8,1.5,7.6,2.5,7.4,3.5,7,4.3,6.5,5.1,5.8M959.05,643.25l16.5,16.5M959.05,643.25h8M967.05,643.25l12.5,12.5M979.55,655.75l2,1.9,2.1,1.7,2.3,1.5,2.3,1.4,2.5,1.2,2.5,1,2.6.8,2.7.6M998.55,665.85v5.8M975.55,659.75l2.4,2.3,2.6,2,2.7,1.8,2.8,1.6,3,1.4,3.1,1.2,3.1.9,3.3.7M822.75,561.05l-.3-1.6-.9-1.4-1.4-.9-1.6-.3-1.7.3-1.3.9-1,1.4-.3,1.6.3,1.6,1,1.4,1.3.9,1.7.4,1.6-.4,1.4-.9.9-1.4.3-1.6M1196.95,212.35l-.3-1.6-1-1.4-1.3-.9-1.7-.3-1.6.3-1.4.9-.9,1.4-.3,1.6.3,1.7.9,1.4,1.4.9,1.6.3,1.7-.3,1.3-.9,1-1.4.3-1.7M822.75,212.35l-.3-1.6-.9-1.4-1.4-.9-1.6-.3-1.7.3-1.3.9-1,1.4-.3,1.6.3,1.7,1,1.4,1.3.9,1.7.3,1.6-.3,1.4-.9.9-1.4.3-1.7M1196.95,561.05l-.3-1.6-1-1.4-1.3-.9-1.7-.3-1.6.3-1.4.9-.9,1.4-.3,1.6.3,1.6.9,1.4,1.4.9,1.6.4,1.7-.4,1.3-.9,1-1.4.3-1.6M849.65,476.55h-5.6M844.05,430.65v45.9M844.05,430.65h5.6M849.65,430.65l.6,6.4,1.7,6.2,2.7,5.8,3.7,5.3,4.5,4.5,5.3,3.7,5.8,2.7,6.2,1.7,6.4.6M886.55,467.55h112M998.55,467.55v5.6M886.55,473.15h112M852.25,455.85l3.2,3.8,3.6,3.4,4,3,4.3,2.5,4.5,2,4.8,1.5,4.9.8,5,.3M852.25,455.85l-.3-.4-.4-.2h-.9l-.4.3-.3.3-.2.4-.1.4M849.65,456.65v19.9M1167.15,476.55v-45.9M1167.15,476.55h-5.6M1161.55,476.55v-19.9M1158.95,455.85l.3-.4.4-.2h.9l.4.3.3.3.2.4.1.4M1124.65,473.15l5-.3,4.9-.8,4.8-1.5,4.5-2,4.3-2.5,4-3,3.6-3.4,3.2-3.8M1012.65,473.15h112M1012.65,473.15v-5.6M1012.65,467.55h112M1124.65,467.55l6.4-.6,6.2-1.7,5.8-2.7,5.3-3.7,4.5-4.5,3.7-5.3,2.7-5.8,1.7-6.2.6-6.4M1161.55,430.65h5.6M849.65,322.05v94.4M849.65,416.45h-5.6M844.05,322.05v94.4M844.05,322.05h5.6M1167.15,416.45v-94.4M1167.15,416.45h-5.6M1161.55,416.45v-94.4M1161.55,322.05h5.6M1150.75,225.05l-54.6-54.5M1096.15,170.55l4.1-4M1154.75,221.05l-54.5-54.5M1167.15,251.15l-.2-4.2-.6-4.1-1-4-1.4-4-1.8-3.7-2.1-3.6-2.5-3.4-2.8-3.1M1167.15,307.85v-56.7M1161.55,307.85h5.6M1161.55,307.85v-56.7M1161.55,251.15l-.2-3.6-.6-3.6-.8-3.5-1.3-3.4-1.5-3.3-1.9-3.1-2.1-2.9-2.4-2.7M915.05,170.55l-4.1-4M915.05,170.55l-54.6,54.5M860.45,225.05l-2.4,2.7-2.1,2.9-1.9,3.1-1.6,3.3-1.2,3.4-.8,3.5-.6,3.6-.2,3.6M849.65,251.15v56.7M844.05,307.85h5.6M844.05,251.15v56.7M856.45,221.05l-2.8,3.1-2.5,3.4-2.1,3.6-1.8,3.7-1.4,4-1,4-.6,4.1-.2,4.2M910.95,166.55l-54.5,54.5M979.55,106.05l-54.5,54.5M925.05,160.55l-4-4M975.55,102.05l-54.5,54.5M1035.65,102.05l-5.1-4.4-5.6-3.4-6.2-2.6-6.5-1.6-6.7-.5-6.6.5-6.5,1.6-6.2,2.6-5.6,3.4-5.1,4.4M1090.15,156.55l-54.5-54.5M1086.15,160.55l4-4M1086.15,160.55l-54.5-54.5M1031.65,106.05l-4.9-4.1-5.6-3.3-6-2.2-6.3-1.1h-6.5l-6.3,1.1-6,2.2-5.6,3.3-4.9,4.1M966.95,218.75l-.1-.3.1-.3.1-.3.1-.3.3-.2.2-.2.3-.1h.3M968.25,217.05h.3l.2.1.2.1.2.1.2.2.1.2.1.2.1.2M969.65,218.15l1.5,5,2.2,4.6,2.8,4.4,3.4,3.9,3.9,3.4,4.3,2.8,4.7,2.1,5,1.5M997.45,245.85l.2.1.2.1.2.2.2.1.1.2.1.3v.2l.1.2M998.55,247.25l-.1.3-.1.3-.1.3-.3.2-.2.2-.3.1h-.7M966.95,218.75l1.6,5.4,2.3,5,3,4.7,3.7,4.2,4.2,3.6,4.7,3.1,5,2.3,5.3,1.6M948.15,217.05h-5.8M948.15,217.05h.2l.3.1.2.1.2.1.2.2.1.2.1.3.1.2M949.55,218.25l1.7,7.9,2.8,7.5,3.9,7,4.8,6.5,5.7,5.6,6.4,4.9,7.1,3.8,7.5,2.9,7.9,1.7M997.35,266.05l.2.1.2.1.2.1.2.2.2.2.1.2v.3l.1.2M998.55,273.15v-5.7M998.55,273.15l-.1.3-.1.3-.1.3-.2.2-.3.2-.2.1h-.6M940.95,218.65l1.7,8.3,2.8,8.1,3.7,7.6,4.7,7,5.6,6.4,6.4,5.6,7.1,4.7,7.6,3.8,8,2.8,8.4,1.6M940.95,218.65v-.3l.1-.3.1-.3.2-.2.2-.2.3-.2.2-.1h.3M955.35,218.75l1.9,7.5,3.1,7.2,4.1,6.7,5.1,5.9,5.9,5.1,6.6,4.1,7.2,3.1,7.6,1.9M955.35,218.75v-.6l.1-.3.2-.3.2-.2.3-.2.3-.1h.3M959.65,217.05h-2.9M959.65,217.05h.2l.2.1.3.1.2.1.1.2.2.2.1.2v.3M960.95,218.25l1.8,6.6,2.7,6.2,3.6,5.8,4.5,5.2,5.2,4.4,5.7,3.7,6.3,2.7,6.6,1.7M997.35,254.55l.2.1.3.1.2.1.1.2.2.2.1.2v.3l.1.2M998.55,258.85v-2.9M998.55,258.85l-.1.3-.1.3-.1.3-.2.2-.3.1-.3.2h-.6M998.55,152.45v-5.7M998.55,152.45l-.1.3v.2l-.1.3-.2.2-.2.1-.2.2-.2.1h-.2M997.35,153.85l-7.9,1.8-7.5,2.8-7.1,3.9-6.4,4.8-5.7,5.7-4.8,6.4-3.9,7-2.8,7.6-1.7,7.8M949.55,201.65l-.1.3-.1.2-.1.2-.2.2-.2.1-.2.1-.3.1h-.2M948.15,202.85h-5.8M942.35,202.85h-.3l-.2-.1-.3-.1-.2-.3-.2-.2-.1-.3-.1-.3v-.3M996.95,145.35l-8.4,1.7-8,2.7-7.6,3.8-7.1,4.7-6.4,5.6-5.6,6.4-4.7,7.1-3.7,7.6-2.8,8-1.7,8.3M996.95,145.35h.6l.2.2.3.1.2.3.1.2.1.3.1.3M998.55,163.95v-2.9M998.55,163.95l-.1.3v.2l-.1.2-.2.2-.1.2-.2.1-.3.2h-.2M997.35,165.35l-6.6,1.8-6.3,2.7-5.7,3.6-5.2,4.4-4.5,5.2-3.6,5.8-2.7,6.3-1.8,6.6M960.95,201.75v.2l-.1.2-.2.2-.1.2-.2.1-.3.1-.2.1h-.2M959.65,202.85h-2.9M956.75,202.85h-.3l-.3-.1-.3-.2-.2-.2-.2-.2-.1-.3v-.6M996.85,159.65l-7.6,2-7.2,3-6.6,4.2-5.9,5-5.1,6-4.1,6.6-3.1,7.2-1.9,7.6M996.85,159.65h.3l.3.1.3.1.3.2.2.2.1.2.1.3.1.3M996.75,171.25h.7l.3.1.2.2.3.2.1.3.1.3.1.3M998.55,172.65l-.1.2v.3l-.1.2-.1.2-.2.2-.2.1-.2.1-.2.1M997.45,174.05l-5,1.5-4.7,2.2-4.3,2.8-3.9,3.4-3.4,3.9-2.8,4.3-2.2,4.7-1.5,4.9M969.65,201.75l-.1.3-.1.2-.1.2-.2.1-.2.2-.2.1h-.5M968.25,202.85h-.3l-.3-.1-.2-.2-.3-.2-.1-.3-.1-.3-.1-.3.1-.3M996.75,171.25l-5.3,1.6-5,2.4-4.7,3-4.2,3.7-3.7,4.2-3,4.6-2.3,5.1-1.6,5.3M1044.25,201.15l-1.6-5.3-2.3-5.1-3-4.6-3.7-4.2-4.2-3.7-4.7-3-5-2.4-5.3-1.6M1044.25,201.15l.1.3-.1.3-.1.3-.1.3-.3.2-.2.2-.3.1h-.3M1042.95,202.85h-.5l-.2-.1-.2-.2-.2-.1-.1-.2-.2-.2v-.3M1041.55,201.75l-1.5-4.9-2.2-4.7-2.8-4.3-3.4-3.9-3.9-3.4-4.3-2.8-4.7-2.2-5-1.5M1013.75,174.05l-.2-.1-.2-.1-.2-.1-.2-.2-.1-.2-.1-.2v-.3l-.1-.2M1012.65,172.65l.1-.3.1-.3.1-.3.3-.2.2-.2.3-.1h.7M1055.85,201.25l-1.9-7.6-3.1-7.2-4.1-6.6-5.1-6-5.9-5-6.6-4.2-7.2-3-7.6-2M1055.85,201.25v.6l-.1.3-.2.2-.2.2-.3.2-.3.1h-.3M1054.45,202.85h-2.9M1051.55,202.85h-.2l-.2-.1-.3-.1-.2-.1-.1-.2-.2-.2-.1-.2-.1-.2M1050.15,201.75l-1.7-6.6-2.7-6.3-3.6-5.8-4.5-5.2-5.2-4.4-5.7-3.6-6.3-2.7-6.6-1.8M1013.85,165.35h-.2l-.3-.2-.2-.1-.1-.2-.2-.2-.1-.2v-.2l-.1-.3M1012.65,163.95v-2.9M1012.65,161.05l.1-.3.1-.3.1-.2.2-.2.3-.2.3-.1.3-.1h.3M1070.25,201.25l-1.7-8.3-2.8-8-3.7-7.6-4.8-7.1-5.6-6.4-6.3-5.6-7.1-4.7-7.6-3.8-8-2.7-8.4-1.7M1070.25,201.25v.3l-.1.3-.1.3-.2.2-.2.3-.3.1-.2.1h-.3M1068.85,202.85h-5.8M1063.05,202.85h-.2l-.3-.1-.2-.1-.2-.1-.2-.2-.1-.2-.1-.2-.1-.3M1061.65,201.65l-1.7-7.8-2.8-7.6-3.9-7-4.8-6.4-5.7-5.7-6.4-4.8-7.1-3.9-7.5-2.8-7.9-1.8M1013.85,153.85h-.2l-.2-.1-.2-.2-.2-.1-.2-.2-.1-.3v-.2l-.1-.3M1012.65,152.45v-5.7M1012.65,146.75l.1-.3.1-.3.1-.2.2-.3.3-.1.2-.2h.6M1041.55,218.15v-.2l.2-.2.1-.2.2-.2.2-.1.2-.1.2-.1h.3M1042.95,217.05h.3l.3.1.2.2.3.2.1.3.1.3.1.3-.1.3M1014.45,248.65l5.3-1.6,5-2.3,4.7-3.1,4.2-3.6,3.7-4.2,3-4.7,2.3-5,1.6-5.4M1014.45,248.65h-.7l-.3-.1-.2-.2-.3-.2-.1-.3-.1-.3-.1-.3M1012.65,247.25l.1-.2v-.2l.1-.3.1-.2.2-.1.2-.2.2-.1.2-.1M1013.75,245.85l5-1.5,4.7-2.1,4.3-2.8,3.9-3.4,3.4-3.9,2.8-4.4,2.2-4.6,1.5-5M1054.45,217.05h-2.9M1054.45,217.05h.3l.3.1.3.2.2.2.2.3.1.3v.6M1014.35,260.25l7.6-1.9,7.2-3.1,6.6-4.1,5.9-5.1,5.1-5.9,4.1-6.7,3.1-7.2,1.9-7.5M1014.35,260.25h-.6l-.3-.2-.3-.1-.2-.2-.1-.3-.1-.3-.1-.3M1012.65,258.85v-2.9M1012.65,255.95l.1-.2v-.3l.1-.2.2-.2.1-.2.2-.1.3-.1.2-.1M1013.85,254.55l6.6-1.7,6.3-2.7,5.7-3.7,5.2-4.4,4.5-5.2,3.6-5.8,2.7-6.2,1.7-6.6M1050.15,218.25l.1-.3.1-.2.2-.2.1-.2.2-.1.3-.1.2-.1h.2M1068.85,217.05h-5.8M1068.85,217.05h.3l.2.1.3.2.2.2.2.2.1.3.1.3v.3M1014.25,274.55l8.4-1.6,8-2.8,7.6-3.8,7.1-4.7,6.3-5.6,5.6-6.4,4.8-7,3.7-7.6,2.8-8.1,1.7-8.3M1014.25,274.55h-.6l-.2-.1-.3-.2-.2-.2-.1-.3-.1-.3-.1-.3M1012.65,273.15v-5.7M1012.65,267.45l.1-.2v-.3l.1-.2.2-.2.2-.2.2-.1.2-.1.2-.1M1013.85,266.05l7.9-1.7,7.5-2.9,7.1-3.8,6.4-4.9,5.7-5.6,4.8-6.5,3.9-7,2.8-7.5,1.7-7.9M1061.65,218.25l.1-.2.1-.3.1-.2.2-.2.2-.1.2-.1.3-.1h.2M1012.65,209.95l-.5-2.7-1.5-2.3-2.3-1.5-2.8-.6-2.7.6-2.3,1.5-1.5,2.3-.5,2.7.5,2.7,1.5,2.3,2.3,1.6,2.7.5,2.8-.5,2.3-1.6,1.5-2.3.5-2.7M1842.95,588.25V21.25M2227.05,306.55l1.6-.3,1.4-.9.9-1.4.3-1.6-.3-1.7-.9-1.4-1.4-.9-1.6-.3-1.7.3-1.4.9-.9,1.4-.3,1.7.3,1.6.9,1.4,1.4.9,1.7.3M1884.05,306.55l-1.7-.3-1.3-.9-1-1.4-.3-1.6.3-1.7,1-1.4,1.3-.9,1.7-.3,1.6.3,1.4.9.9,1.4.3,1.7-.3,1.6-.9,1.4-1.4.9-1.6.3M2268.15,588.25V21.25M2268.15,21.25h-425.2M1842.95,588.25h425.2M427.75,153.45l-123.6-123.6M557.35,283.05l-119.6-119.6M561.35,279.05l-119.6-119.6M597.45,556.65v-34.3M340.55,667.65l-73.9-74M597.45,522.35h5.7M603.15,508.15h-5.7M645.25,508.15h-5.7M639.55,522.35h5.7M561.35,279.05l-4,4M571.35,282.75l-4-4M567.35,293.05l4-4M557.35,288.75l4,4M456.95,469.25l-4-4M442.95,475.35l4,4M406.85,439.25l4,4M420.85,433.25l-4-4M137.05,464.05l4-4M131.05,450.05l-4,4M431.75,149.45l-4,4M437.75,163.45l4-4M431.75,149.45l-119.6-119.6M127.05,454.05L8.85,335.95M131.05,450.05L8.85,327.85M266.45,579.65l140.4-140.4M270.45,583.65l140.4-140.4M442.95,475.35l-121.1,121.1M446.95,479.35l-121.1,121.1M645.25,362.95v145.2M639.55,365.25v142.9M603.15,508.15v-152M597.45,508.15v-152M340.55,667.65h145.3M342.95,661.95h142.9M333.85,625.45h152M270.45,583.65l-4-4M266.65,593.65l4-4M.35,786.65h735.6M735.95,786.65l5.5-.5,5.4-1.6,4.9-2.7,4.3-3.5,3.5-4.3,2.6-4.9,1.6-5.3.6-5.5M764.35,758.35V21.35M764.35,21.35H.35M.35,21.35v765.3M30.35,690.45l-1.4-.9-1.6-.3-1.7.3-1.4.9-.9,1.4-.3,1.7.3,1.6.9,1.4,1.4.9,1.7.3,1.6-.3,1.4-.9.9-1.4.3-1.6-.3-1.7-.9-1.4M674.15,46.65l-1.4-.9-1.6-.3-1.6.3-1.4.9-.9,1.4-.4,1.6.4,1.6.9,1.4,1.4.9,1.6.4,1.6-.4,1.4-.9.9-1.4.3-1.6-.3-1.6-.9-1.4M731.25,747.55l-1.4-.9-1.6-.3-1.7.3-1.4.9-.9,1.4-.3,1.6.3,1.6.9,1.4,1.4.9,1.7.4,1.6-.4,1.4-.9.9-1.4.3-1.6-.3-1.6-.9-1.4M645.25,522.35v145.3M500.05,667.65h145.2M333.85,619.85h152M312.15,29.85h-8M256.35,589.65l4.1,4M609.35,625.65l-1.4-.9-1.6-.3-1.7.3-1.3.9-1,1.4-.3,1.6.3,1.7,1,1.3,1.3,1,1.7.3,1.6-.3,1.4-1,.9-1.3.3-1.7-.3-1.6-.9-1.4M645.25,362.95l-73.9-73.9M500.05,661.95h139.5M256.65,583.65l-119.6-119.6M260.65,579.65l-119.6-119.6M420.85,433.25l140.5-140.5M8.85,327.85v8.1M260.65,579.65l-4,4M325.85,600.45l-2,2.7-1.1,3.1-.2,3.3.8,3.3,1.7,2.8,2.5,2.2,3,1.5,3.3.5M485.85,619.85v5.6M321.85,596.45l-2.7,3.5-1.7,4.1-.6,4.4.6,4.4,1.7,4.1,2.7,3.5,3.5,2.7,4.1,1.7,4.4.6M578.05,348.15l-121.1,121.1M574.05,344.15l-121.1,121.1M603.15,356.15l-.6-4.4-1.7-4.1-2.7-3.5-3.5-2.7-4.1-1.7-4.4-.6-4.5.6-4.1,1.7-3.5,2.7M597.45,356.15l-.5-3.2-1.4-3.1-2.3-2.4-2.8-1.7-3.2-.8-3.4.1-3.1,1.1-2.7,2M416.85,429.25l140.5-140.5M571.35,282.75l26.8-26.8M567.35,278.75l26.8-26.8M594.15,251.95l.7-.8.7-.9.6-1,.4-1,.4-1,.3-1.1.1-1.1.1-1.1M597.45,243.95V29.85M603.15,29.85h-5.7M603.15,243.95V29.85M598.15,255.95l1.1-1.2,1-1.4.9-1.4.7-1.5.5-1.6.4-1.6.3-1.6.1-1.7M639.55,365.25l-72.2-72.2M603.15,556.65v-34.3M598.15,568.65l1.1-1.2,1-1.4.9-1.4.7-1.5.5-1.6.4-1.6.3-1.6.1-1.7M546.35,620.45l51.8-51.8M534.25,625.45l1.7-.1,1.6-.2,1.7-.4,1.5-.6,1.5-.7,1.5-.8,1.3-1,1.3-1.2M500.05,625.45h34.2M500.05,625.45v-5.6M500.05,619.85h34.2M534.25,619.85l1.1-.1,1.1-.2,1.1-.2,1.1-.4,1-.5.9-.6.9-.6.8-.8M542.25,616.45l51.9-51.8M594.15,564.65l.7-.8.7-.9.6-1,.4-1,.4-1,.3-1.1.1-1.1.1-1.1M500.05,667.65v-5.7M639.55,522.35v139.6M485.85,661.95v5.7M342.95,661.95l-72.3-72.3M229.65,616.45l26.7-26.8M233.65,620.45l26.8-26.8M221.55,625.45l1.7-.1,1.7-.2,1.6-.4,1.5-.6,1.6-.7,1.4-.8,1.3-1,1.3-1.2M8.85,625.45h212.7M8.85,619.85v5.6M8.85,619.85h212.7M221.55,619.85l1.1-.1,1.1-.2,1.1-.2,1.1-.4,1-.5.9-.6.9-.6.9-.8M1291.85,309.55l1.6.3,1.4.9.9,1.4.3,1.6-.3,1.7-.9,1.3-1.4,1-1.6.3-1.7-.3-1.3-1-1-1.3-.3-1.7.3-1.6,1-1.4,1.3-.9,1.7-.3M1768.05,309.55l1.6.3,1.4.9.9,1.4.3,1.6-.3,1.7-.9,1.3-1.4,1-1.6.3-1.6-.3-1.4-1-.9-1.3-.4-1.7.4-1.6.9-1.4,1.4-.9,1.6-.3M1529.95,744.25l1.6.3,1.4.9.9,1.4.3,1.6-.3,1.7-.9,1.3-1.4,1-1.6.3-1.6-.3-1.4-1-.9-1.3-.4-1.7.4-1.6.9-1.4,1.4-.9,1.6-.3M1274.85,928.35h510.2M1785.05,928.35l5.5-.5,5.3-1.6,4.9-2.6,4.3-3.6,3.6-4.3,2.6-4.9,1.6-5.3.5-5.5M1813.35,900.05V191.35M1246.45,191.35h566.9M1246.45,900.05V191.35M1246.45,900.05l.6,5.5,1.6,5.3,2.6,4.9,3.5,4.3,4.3,3.6,4.9,2.6,5.3,1.6,5.6.5M1702.85,798.35v73.6M1702.85,871.95l-.3,2.8-.8,2.6-1.3,2.5-1.8,2.1-2.1,1.8-2.5,1.3-2.6.8-2.8.3M1688.65,886.15h-317.5M1371.15,886.15l-2.7-.3-2.7-.8-2.4-1.3-2.2-1.8-1.7-2.1-1.4-2.5-.8-2.6-.2-2.8M1357.05,798.35v73.6M1357.05,798.35l.2-2.7.8-2.7,1.4-2.5,1.7-2.1,2.2-1.8,2.4-1.3,2.7-.8,2.7-.3M1371.15,784.15h317.5M1688.65,784.15l2.8.3,2.6.8,2.5,1.3,2.1,1.8,1.8,2.1,1.3,2.5.8,2.7.3,2.7"/>
  <text class="cls-4" transform="translate(8.45 921.59)"><tspan x="0" y="0">Außenmaße: Höhe 320 mm, Breite 800 mm</tspan></text>
  <line class="cls-3" x1="1529.98" y1="741.35" x2="1529.98" y2="737.1"/>
  <line class="cls-3" x1="1522.9" y1="748.44" x2="1518.65" y2="748.44"/>
  <line class="cls-3" x1="1529.98" y1="755.52" x2="1529.98" y2="759.78"/>
  <line class="cls-3" x1="1537.07" y1="748.44" x2="1541.32" y2="748.44"/>
  <line class="cls-3" x1="1768.09" y1="306.65" x2="1768.09" y2="302.4"/>
  <line class="cls-3" x1="1761.01" y1="313.74" x2="1756.76" y2="313.74"/>
  <line class="cls-3" x1="1768.09" y1="320.82" x2="1768.09" y2="325.07"/>
  <line class="cls-3" x1="1775.18" y1="313.74" x2="1779.43" y2="313.74"/>
  <line class="cls-3" x1="1291.87" y1="306.65" x2="1291.87" y2="302.4"/>
  <line class="cls-3" x1="1284.79" y1="313.74" x2="1280.54" y2="313.74"/>
  <line class="cls-3" x1="1291.87" y1="320.82" x2="1291.87" y2="325.07"/>
  <line class="cls-3" x1="1298.96" y1="313.74" x2="1303.21" y2="313.74"/>
  <line class="cls-3" x1="1884.06" y1="295.17" x2="1884.06" y2="290.92"/>
  <line class="cls-3" x1="1876.98" y1="302.26" x2="1872.72" y2="302.26"/>
  <line class="cls-3" x1="1884.06" y1="309.34" x2="1884.06" y2="313.6"/>
  <line class="cls-3" x1="1891.15" y1="302.26" x2="1895.4" y2="302.26"/>
  <line class="cls-3" x1="2227.06" y1="295.17" x2="2227.06" y2="290.92"/>
  <line class="cls-3" x1="2219.97" y1="302.26" x2="2215.72" y2="302.26"/>
  <line class="cls-3" x1="2227.06" y1="309.34" x2="2227.06" y2="313.6"/>
  <line class="cls-3" x1="2234.14" y1="302.26" x2="2238.39" y2="302.26"/>
  <line class="cls-3" x1="27.36" y1="686.37" x2="27.36" y2="682.12"/>
  <line class="cls-3" x1="20.27" y1="693.46" x2="16.02" y2="693.46"/>
  <line class="cls-3" x1="27.36" y1="700.54" x2="27.36" y2="704.79"/>
  <line class="cls-3" x1="34.44" y1="693.46" x2="38.7" y2="693.46"/>
  <line class="cls-3" x1="671.2" y1="42.53" x2="671.2" y2="38.28"/>
  <line class="cls-3" x1="664.11" y1="49.62" x2="659.86" y2="49.62"/>
  <line class="cls-3" x1="671.2" y1="56.7" x2="671.2" y2="60.96"/>
  <line class="cls-3" x1="678.28" y1="49.62" x2="682.53" y2="49.62"/>
  <line class="cls-3" x1="728.26" y1="743.43" x2="728.26" y2="739.18"/>
  <line class="cls-3" x1="721.17" y1="750.52" x2="716.92" y2="750.52"/>
  <line class="cls-3" x1="728.26" y1="757.61" x2="728.26" y2="761.86"/>
  <line class="cls-3" x1="735.35" y1="750.52" x2="739.6" y2="750.52"/>
  <line class="cls-3" x1="606.37" y1="621.55" x2="606.37" y2="617.29"/>
  <line class="cls-3" x1="599.28" y1="628.63" x2="595.03" y2="628.63"/>
  <line class="cls-3" x1="606.37" y1="635.72" x2="606.37" y2="639.97"/>
  <line class="cls-3" x1="613.46" y1="628.63" x2="617.71" y2="628.63"/>
  <line class="cls-3" x1="1005.65" y1="202.83" x2="1005.65" y2="195.75"/>
  <line class="cls-3" x1="998.57" y1="209.92" x2="991.48" y2="209.92"/>
  <line class="cls-3" x1="1005.65" y1="217.01" x2="1005.65" y2="224.09"/>
  <line class="cls-3" x1="1012.74" y1="209.92" x2="1019.83" y2="209.92"/>
  <line class="cls-3" x1="1192.74" y1="553.93" x2="1192.74" y2="549.68"/>
  <line class="cls-3" x1="1185.65" y1="561.01" x2="1181.4" y2="561.01"/>
  <line class="cls-3" x1="1192.74" y1="568.1" x2="1192.74" y2="572.35"/>
  <line class="cls-3" x1="1199.83" y1="561.01" x2="1204.08" y2="561.01"/>
  <line class="cls-3" x1="818.57" y1="205.27" x2="818.57" y2="201.01"/>
  <line class="cls-3" x1="811.48" y1="212.35" x2="807.23" y2="212.35"/>
  <line class="cls-3" x1="818.57" y1="219.44" x2="818.57" y2="223.69"/>
  <line class="cls-3" x1="825.65" y1="212.35" x2="829.9" y2="212.35"/>
  <line class="cls-3" x1="1192.74" y1="205.27" x2="1192.74" y2="201.01"/>
  <line class="cls-3" x1="1185.65" y1="212.35" x2="1181.4" y2="212.35"/>
  <line class="cls-3" x1="1192.74" y1="219.44" x2="1192.74" y2="223.69"/>
  <line class="cls-3" x1="1199.83" y1="212.35" x2="1204.08" y2="212.35"/>
  <line class="cls-3" x1="818.57" y1="553.93" x2="818.57" y2="549.68"/>
  <line class="cls-3" x1="811.48" y1="561.01" x2="807.23" y2="561.01"/>
  <line class="cls-3" x1="818.57" y1="568.1" x2="818.57" y2="572.35"/>
  <line class="cls-3" x1="825.65" y1="561.01" x2="829.9" y2="561.01"/>
  <line class="cls-3" x1="1005.65" y1="851.61" x2="1005.65" y2="847.35"/>
  <line class="cls-3" x1="998.57" y1="858.69" x2="994.31" y2="858.69"/>
  <line class="cls-3" x1="1005.65" y1="865.78" x2="1005.65" y2="870.03"/>
  <line class="cls-3" x1="1012.74" y1="858.69" x2="1016.99" y2="858.69"/>
  <path class="cls-1" d="M1005.55,858.75h7.1M1005.55,858.75v7.1M1005.55,858.75h-7M1005.55,858.75v-7.1M818.55,561.05h7M818.55,561.05v7.1M818.55,561.05h-7.1M818.55,561.05v-7.1M1192.65,212.35h7.1M1192.65,212.35v7.1M1192.65,212.35h-7.1M1192.65,212.35v-7M818.55,212.35h7M818.55,212.35v7.1M818.55,212.35h-7.1M818.55,212.35v-7M1192.65,561.05h7.1M1192.65,561.05v7.1M1192.65,561.05h-7.1M1192.65,561.05v-7.1M1005.55,209.95h7.1M1005.55,209.95v7.1M1005.55,209.95h-7M1005.55,209.95v-7.1M606.35,628.65h7.1M606.35,628.65v7.1M606.35,628.65h-7.1M606.35,628.65v-7.1M728.25,750.55h7M728.25,750.55v7.1M728.25,750.55h-7.1M728.25,750.55v-7.1M671.15,49.65h7.1M671.15,49.65v7.1M671.15,49.65h-7.1M671.15,49.65v-7.1M27.35,693.55h7M27.35,693.55v7M27.35,693.55h-7.1M27.35,693.55v-7.1M2227.05,302.35h7M2227.05,302.35v7M2227.05,302.35h-7.1M2227.05,302.35v-7.1M1884.05,302.35h7M1884.05,302.35v7M1884.05,302.35h-7.1M1884.05,302.35v-7.1M1291.85,313.75h7.1M1291.85,313.75v7.1M1291.85,313.75h-7.1M1291.85,313.75v-7.1M1768.05,313.75h7.1M1768.05,313.75v7.1M1768.05,313.75h-7.1M1768.05,313.75v-7.1M1529.95,748.45h7.1M1529.95,748.45v7.1M1529.95,748.45h-7.1M1529.95,748.45v-7.1"/>
</svg>